<svg width="1920" height="1080" viewBox="0 0 1920 1080" fill="none" xmlns="http://www.w3.org/2000/svg">
<g clip-path="url(#clip0_3732_2548)">
<rect width="1920" height="1080" fill="#131212"/>
<circle cx="1919.5" cy="0.5" r="359.5" stroke="#FB6542" stroke-width="150"/>
<circle cx="247" cy="1080" r="287" stroke="#FB6542" stroke-width="100"/>
<g filter="url(#filter0_d_3732_2548)">
<rect x="210" y="165" width="750" height="750" rx="375" fill="#FB6542"/>
<path d="M655.324 277.502L561.574 636.877H514.699L655.324 277.502Z" fill="white"/>
<path d="M616.262 802.502L561.574 668.127H514.699L616.262 802.502Z" fill="white"/>
</g>
<g opacity="0.3">
<rect x="1466" y="803" width="14" height="14" fill="white"/>
<rect x="1466" y="860" width="14" height="14" fill="white"/>
<rect x="1466" y="831" width="14" height="14" fill="white"/>
<rect x="1466" y="888" width="14" height="14" fill="white"/>
<rect x="1579" y="803" width="14" height="14" fill="white"/>
<rect x="1579" y="860" width="14" height="14" fill="white"/>
<rect x="1579" y="831" width="14" height="14" fill="white"/>
<rect x="1579" y="888" width="14" height="14" fill="white"/>
<rect x="1523" y="803" width="14" height="14" fill="white"/>
<rect x="1523" y="860" width="14" height="14" fill="white"/>
<rect x="1523" y="831" width="14" height="14" fill="white"/>
<rect x="1523" y="888" width="14" height="14" fill="white"/>
<rect x="1636" y="803" width="14" height="14" fill="white"/>
<rect x="1636" y="860" width="14" height="14" fill="white"/>
<rect x="1636" y="831" width="14" height="14" fill="white"/>
<rect x="1636" y="888" width="14" height="14" fill="white"/>
<rect x="1693" y="803" width="14" height="14" fill="white"/>
<rect x="1778" y="803" width="14" height="14" fill="white"/>
<rect x="1693" y="860" width="14" height="14" fill="white"/>
<rect x="1778" y="860" width="14" height="14" fill="white"/>
<rect x="1693" y="831" width="14" height="14" fill="white"/>
<rect x="1778" y="831" width="14" height="14" fill="white"/>
<rect x="1693" y="888" width="14" height="14" fill="white"/>
<rect x="1778" y="888" width="14" height="14" fill="white"/>
<rect x="1494" y="803" width="14" height="14" fill="white"/>
<rect x="1494" y="860" width="14" height="14" fill="white"/>
<rect x="1494" y="831" width="14" height="14" fill="white"/>
<rect x="1494" y="888" width="14" height="14" fill="white"/>
<rect x="1608" y="803" width="14" height="14" fill="white"/>
<rect x="1608" y="860" width="14" height="14" fill="white"/>
<rect x="1608" y="831" width="14" height="14" fill="white"/>
<rect x="1608" y="888" width="14" height="14" fill="white"/>
<rect x="1551" y="803" width="14" height="14" fill="white"/>
<rect x="1551" y="860" width="14" height="14" fill="white"/>
<rect x="1551" y="831" width="14" height="14" fill="white"/>
<rect x="1551" y="888" width="14" height="14" fill="white"/>
<rect x="1664" y="803" width="14" height="14" fill="white"/>
<rect x="1749" y="803" width="14" height="14" fill="white"/>
<rect x="1664" y="860" width="14" height="14" fill="white"/>
<rect x="1749" y="860" width="14" height="14" fill="white"/>
<rect x="1664" y="831" width="14" height="14" fill="white"/>
<rect x="1749" y="831" width="14" height="14" fill="white"/>
<rect x="1664" y="888" width="14" height="14" fill="white"/>
<rect x="1749" y="888" width="14" height="14" fill="white"/>
<rect x="1721" y="803" width="14" height="14" fill="white"/>
<rect x="1806" y="803" width="14" height="14" fill="white"/>
<rect x="1721" y="860" width="14" height="14" fill="white"/>
<rect x="1806" y="860" width="14" height="14" fill="white"/>
<rect x="1721" y="831" width="14" height="14" fill="white"/>
<rect x="1806" y="831" width="14" height="14" fill="white"/>
<rect x="1721" y="888" width="14" height="14" fill="white"/>
<rect x="1806" y="888" width="14" height="14" fill="white"/>
</g>
<path d="M1427.38 -28.4177C1405.84 8.39745 1343.9 9.52458 1358.72 103.405C1375.37 208.622 1278.95 253.846 1213.09 227.783C1147.22 201.72 1151.85 105.085 1026.68 102.113C898.717 99.0773 871.796 -22.4644 871.796 -22.4644" stroke="#FB6542" stroke-width="2" stroke-miterlimit="10"/>
<path d="M1330.94 -56.7208C1330.94 -10.0772 1294.76 23.4819 1307.75 103.287C1320.75 183.092 1262.36 192.424 1239.1 183.092C1190.86 163.733 1181.58 60.2317 1103.66 53.5015C1045.09 48.4696 966.347 88.5077 924.629 -2.35495" stroke="#FB6542" stroke-width="2" stroke-miterlimit="10"/>
<path d="M1291.98 -20.9554C1300.13 -7.87974 1278.29 39.858 1247.46 46.3921C1223.11 51.5522 1182.52 -9.78048 1099.04 27.421C1069.35 40.6647 949.694 44.5853 973.814 -28.4354" stroke="#FB6542" stroke-width="2" stroke-miterlimit="10"/>
<path d="M1250.24 154.799C1264.07 154.799 1275.28 138.293 1275.28 117.932C1275.28 97.5705 1264.07 81.0645 1250.24 81.0645C1236.41 81.0645 1225.2 97.5705 1225.2 117.932C1225.2 138.293 1236.41 154.799 1250.24 154.799Z" stroke="#FB6542" stroke-width="2" stroke-miterlimit="10"/>
<rect x="145.414" y="324.449" width="41" height="41" rx="3" transform="rotate(15 145.414 324.449)" fill="#131212" fill-opacity="0.01" stroke="white" stroke-width="4"/>
<rect x="960" y="878.828" width="61" height="61" rx="3" transform="rotate(45 960 878.828)" fill="#131212" fill-opacity="0.01" stroke="white" stroke-width="4"/>
<rect x="1556" y="392.414" width="23" height="23" rx="2" transform="rotate(45 1556 392.414)" fill="#131212" fill-opacity="0.01" stroke="white" stroke-width="2"/>
<g opacity="0.3">
<rect x="12" y="73" width="14" height="14" fill="white"/>
<rect x="12" y="101" width="14" height="14" fill="white"/>
<rect x="69" y="73" width="14" height="14" fill="white"/>
<rect x="154" y="73" width="14" height="14" fill="white"/>
<rect x="69" y="101" width="14" height="14" fill="white"/>
<rect x="154" y="101" width="14" height="14" fill="white"/>
<rect x="40" y="73" width="14" height="14" fill="white"/>
<rect x="125" y="73" width="14" height="14" fill="white"/>
<rect x="40" y="101" width="14" height="14" fill="white"/>
<rect x="125" y="101" width="14" height="14" fill="white"/>
<rect x="97" y="73" width="14" height="14" fill="white"/>
<rect x="182" y="73" width="14" height="14" fill="white"/>
<rect x="97" y="101" width="14" height="14" fill="white"/>
<rect x="182" y="101" width="14" height="14" fill="white"/>
</g>
</g>
<defs>
<filter id="filter0_d_3732_2548" x="110" y="65" width="950" height="950" filterUnits="userSpaceOnUse" color-interpolation-filters="sRGB">
<feFlood flood-opacity="0" result="BackgroundImageFix"/>
<feColorMatrix in="SourceAlpha" type="matrix" values="0 0 0 0 0 0 0 0 0 0 0 0 0 0 0 0 0 0 127 0" result="hardAlpha"/>
<feOffset/>
<feGaussianBlur stdDeviation="50"/>
<feColorMatrix type="matrix" values="0 0 0 0 0 0 0 0 0 0 0 0 0 0 0 0 0 0 0.5 0"/>
<feBlend mode="normal" in2="BackgroundImageFix" result="effect1_dropShadow_3732_2548"/>
<feBlend mode="normal" in="SourceGraphic" in2="effect1_dropShadow_3732_2548" result="shape"/>
</filter>
<clipPath id="clip0_3732_2548">
<rect width="1920" height="1080" fill="white"/>
</clipPath>
</defs>
</svg>
